<svg width="46" height="5" viewBox="0 0 46 5" fill="none" xmlns="http://www.w3.org/2000/svg">
<path d="M1.60889 0.515015V4.78064H0.72998V0.515015H1.60889ZM3.30811 2.33728V3.02283H1.36865V2.33728H3.30811ZM3.51318 0.515015V1.20349H1.36865V0.515015H3.51318ZM7.52686 2.54822V2.75037C7.52686 3.07458 7.48291 3.3656 7.39502 3.62341C7.30713 3.88123 7.18311 4.10095 7.02295 4.28259C6.86279 4.46228 6.67139 4.59998 6.44873 4.69568C6.22803 4.79138 5.98291 4.83923 5.71338 4.83923C5.4458 4.83923 5.20068 4.79138 4.97803 4.69568C4.75732 4.59998 4.56592 4.46228 4.40381 4.28259C4.2417 4.10095 4.11572 3.88123 4.02588 3.62341C3.93799 3.3656 3.89404 3.07458 3.89404 2.75037V2.54822C3.89404 2.22205 3.93799 1.93103 4.02588 1.67517C4.11377 1.41736 4.23779 1.19763 4.39795 1.01599C4.56006 0.834351 4.75146 0.695679 4.97217 0.599976C5.19482 0.504272 5.43994 0.456421 5.70752 0.456421C5.97705 0.456421 6.22217 0.504272 6.44287 0.599976C6.66553 0.695679 6.85693 0.834351 7.01709 1.01599C7.1792 1.19763 7.3042 1.41736 7.39209 1.67517C7.48193 1.93103 7.52686 2.22205 7.52686 2.54822ZM6.63916 2.75037V2.54236C6.63916 2.3158 6.61865 2.11658 6.57764 1.9447C6.53662 1.77283 6.47607 1.6283 6.396 1.51111C6.31592 1.39392 6.21826 1.30603 6.10303 1.24744C5.98779 1.18689 5.85596 1.15662 5.70752 1.15662C5.55908 1.15662 5.42725 1.18689 5.31201 1.24744C5.19873 1.30603 5.10205 1.39392 5.02197 1.51111C4.94385 1.6283 4.88428 1.77283 4.84326 1.9447C4.80225 2.11658 4.78174 2.3158 4.78174 2.54236V2.75037C4.78174 2.97498 4.80225 3.17419 4.84326 3.34802C4.88428 3.5199 4.94482 3.66541 5.0249 3.78455C5.10498 3.90173 5.20264 3.9906 5.31787 4.05115C5.43311 4.11169 5.56494 4.14197 5.71338 4.14197C5.86182 4.14197 5.99365 4.11169 6.10889 4.05115C6.22412 3.9906 6.3208 3.90173 6.39893 3.78455C6.47705 3.66541 6.53662 3.5199 6.57764 3.34802C6.61865 3.17419 6.63916 2.97498 6.63916 2.75037ZM10.3804 3.66443C10.3804 3.58826 10.3687 3.5199 10.3452 3.45935C10.3237 3.39685 10.2827 3.34021 10.2222 3.28943C10.1616 3.23669 10.0767 3.18494 9.96729 3.13416C9.85791 3.08337 9.71631 3.03064 9.54248 2.97595C9.34912 2.91345 9.16553 2.84314 8.9917 2.76501C8.81982 2.68689 8.66748 2.59607 8.53467 2.49255C8.40381 2.38708 8.30029 2.26501 8.22412 2.12634C8.1499 1.98767 8.11279 1.82654 8.11279 1.64294C8.11279 1.46521 8.15186 1.30408 8.22998 1.15955C8.30811 1.01306 8.41748 0.888062 8.55811 0.784546C8.69873 0.679077 8.86475 0.598022 9.05615 0.541382C9.24951 0.484741 9.46143 0.456421 9.69189 0.456421C10.0063 0.456421 10.2808 0.513062 10.5151 0.626343C10.7495 0.739624 10.9312 0.894897 11.0601 1.09216C11.1909 1.28943 11.2563 1.51501 11.2563 1.76892H10.3833C10.3833 1.64392 10.3569 1.53455 10.3042 1.4408C10.2534 1.34509 10.1753 1.2699 10.0698 1.21521C9.96631 1.16052 9.83545 1.13318 9.67725 1.13318C9.5249 1.13318 9.39795 1.15662 9.29639 1.20349C9.19482 1.24841 9.11865 1.30994 9.06787 1.38806C9.01709 1.46423 8.9917 1.55017 8.9917 1.64587C8.9917 1.71814 9.00928 1.78357 9.04443 1.84216C9.08154 1.90076 9.13623 1.95544 9.2085 2.00623C9.28076 2.05701 9.36963 2.10486 9.4751 2.14978C9.58057 2.1947 9.70264 2.23865 9.84131 2.28162C10.0737 2.35193 10.2778 2.43103 10.4536 2.51892C10.6313 2.60681 10.7798 2.70544 10.8989 2.81482C11.0181 2.92419 11.1079 3.04822 11.1685 3.18689C11.229 3.32556 11.2593 3.48279 11.2593 3.65857C11.2593 3.84412 11.2231 4.01013 11.1509 4.15662C11.0786 4.3031 10.9741 4.42712 10.8374 4.52869C10.7007 4.63025 10.5376 4.7074 10.3481 4.76013C10.1587 4.81287 9.94678 4.83923 9.7124 4.83923C9.50146 4.83923 9.29346 4.81189 9.08838 4.7572C8.8833 4.70056 8.69678 4.6156 8.52881 4.50232C8.36279 4.38904 8.22998 4.24451 8.13037 4.06873C8.03076 3.89294 7.98096 3.68494 7.98096 3.4447H8.86279C8.86279 3.57751 8.8833 3.68982 8.92432 3.78162C8.96533 3.87341 9.02295 3.94763 9.09717 4.00427C9.17334 4.06091 9.26318 4.10193 9.3667 4.12732C9.47217 4.15271 9.5874 4.16541 9.7124 4.16541C9.86475 4.16541 9.98975 4.14392 10.0874 4.10095C10.187 4.05798 10.2603 3.99841 10.3071 3.92224C10.356 3.84607 10.3804 3.76013 10.3804 3.66443ZM13.7642 0.515015V4.78064H12.8882V0.515015H13.7642ZM15.0767 0.515015V1.20349H11.5962V0.515015H15.0767ZM18.4399 4.09509V4.78064H16.1694V4.09509H18.4399ZM16.4565 0.515015V4.78064H15.5776V0.515015H16.4565ZM18.144 2.25232V2.92029H16.1694V2.25232H18.144ZM18.437 0.515015V1.20349H16.1694V0.515015H18.437ZM18.9526 0.515015H20.5435C20.8696 0.515015 21.1499 0.563843 21.3843 0.661499C21.6206 0.759155 21.8022 0.903687 21.9292 1.09509C22.0562 1.2865 22.1196 1.52185 22.1196 1.80115C22.1196 2.02966 22.0806 2.22595 22.0024 2.39001C21.9263 2.55212 21.8179 2.68787 21.6772 2.79724C21.5386 2.90466 21.3755 2.9906 21.188 3.05505L20.9097 3.20154H19.5269L19.521 2.51599H20.5493C20.7036 2.51599 20.8315 2.48865 20.9331 2.43396C21.0347 2.37927 21.1108 2.3031 21.1616 2.20544C21.2144 2.10779 21.2407 1.99451 21.2407 1.8656C21.2407 1.72888 21.2153 1.61072 21.1646 1.51111C21.1138 1.4115 21.0366 1.33533 20.9331 1.28259C20.8296 1.22986 20.6997 1.20349 20.5435 1.20349H19.8315V4.78064H18.9526V0.515015ZM21.3374 4.78064L20.3647 2.87927L21.2935 2.87341L22.2778 4.73962V4.78064H21.3374ZM25.9517 3.26013H24.8647V2.57458H25.9517C26.1196 2.57458 26.2563 2.54724 26.3618 2.49255C26.4673 2.43591 26.5444 2.35779 26.5933 2.25818C26.6421 2.15857 26.6665 2.04626 26.6665 1.92126C26.6665 1.79431 26.6421 1.67615 26.5933 1.56677C26.5444 1.4574 26.4673 1.36951 26.3618 1.3031C26.2563 1.23669 26.1196 1.20349 25.9517 1.20349H25.1694V4.78064H24.2905V0.515015H25.9517C26.2856 0.515015 26.5718 0.575562 26.8101 0.696655C27.0503 0.815796 27.2339 0.980835 27.3608 1.19177C27.4878 1.40271 27.5513 1.64392 27.5513 1.91541C27.5513 2.1908 27.4878 2.42908 27.3608 2.63025C27.2339 2.83142 27.0503 2.98669 26.8101 3.09607C26.5718 3.20544 26.2856 3.26013 25.9517 3.26013ZM31.02 4.09509V4.78064H28.7495V4.09509H31.02ZM29.0366 0.515015V4.78064H28.1577V0.515015H29.0366ZM30.7241 2.25232V2.92029H28.7495V2.25232H30.7241ZM31.0171 0.515015V1.20349H28.7495V0.515015H31.0171ZM33.4985 0.515015V4.78064H32.6226V0.515015H33.4985ZM34.811 0.515015V1.20349H31.3306V0.515015H34.811ZM38.1743 4.09509V4.78064H35.9038V4.09509H38.1743ZM36.1909 0.515015V4.78064H35.312V0.515015H36.1909ZM37.8784 2.25232V2.92029H35.9038V2.25232H37.8784ZM38.1714 0.515015V1.20349H35.9038V0.515015H38.1714ZM38.687 0.515015H40.2778C40.604 0.515015 40.8843 0.563843 41.1187 0.661499C41.355 0.759155 41.5366 0.903687 41.6636 1.09509C41.7905 1.2865 41.854 1.52185 41.854 1.80115C41.854 2.02966 41.8149 2.22595 41.7368 2.39001C41.6606 2.55212 41.5522 2.68787 41.4116 2.79724C41.2729 2.90466 41.1099 2.9906 40.9224 3.05505L40.644 3.20154H39.2612L39.2554 2.51599H40.2837C40.438 2.51599 40.5659 2.48865 40.6675 2.43396C40.769 2.37927 40.8452 2.3031 40.896 2.20544C40.9487 2.10779 40.9751 1.99451 40.9751 1.8656C40.9751 1.72888 40.9497 1.61072 40.8989 1.51111C40.8481 1.4115 40.771 1.33533 40.6675 1.28259C40.564 1.22986 40.4341 1.20349 40.2778 1.20349H39.5659V4.78064H38.687V0.515015ZM41.0718 4.78064L40.0991 2.87927L41.0278 2.87341L42.0122 4.73962V4.78064H41.0718ZM44.7515 3.66443C44.7515 3.58826 44.7397 3.5199 44.7163 3.45935C44.6948 3.39685 44.6538 3.34021 44.5933 3.28943C44.5327 3.23669 44.4478 3.18494 44.3384 3.13416C44.229 3.08337 44.0874 3.03064 43.9136 2.97595C43.7202 2.91345 43.5366 2.84314 43.3628 2.76501C43.1909 2.68689 43.0386 2.59607 42.9058 2.49255C42.7749 2.38708 42.6714 2.26501 42.5952 2.12634C42.521 1.98767 42.4839 1.82654 42.4839 1.64294C42.4839 1.46521 42.5229 1.30408 42.6011 1.15955C42.6792 1.01306 42.7886 0.888062 42.9292 0.784546C43.0698 0.679077 43.2358 0.598022 43.4272 0.541382C43.6206 0.484741 43.8325 0.456421 44.063 0.456421C44.3774 0.456421 44.6519 0.513062 44.8862 0.626343C45.1206 0.739624 45.3022 0.894897 45.4312 1.09216C45.562 1.28943 45.6274 1.51501 45.6274 1.76892H44.7544C44.7544 1.64392 44.728 1.53455 44.6753 1.4408C44.6245 1.34509 44.5464 1.2699 44.4409 1.21521C44.3374 1.16052 44.2065 1.13318 44.0483 1.13318C43.896 1.13318 43.769 1.15662 43.6675 1.20349C43.5659 1.24841 43.4897 1.30994 43.439 1.38806C43.3882 1.46423 43.3628 1.55017 43.3628 1.64587C43.3628 1.71814 43.3804 1.78357 43.4155 1.84216C43.4526 1.90076 43.5073 1.95544 43.5796 2.00623C43.6519 2.05701 43.7407 2.10486 43.8462 2.14978C43.9517 2.1947 44.0737 2.23865 44.2124 2.28162C44.4448 2.35193 44.6489 2.43103 44.8247 2.51892C45.0024 2.60681 45.1509 2.70544 45.27 2.81482C45.3892 2.92419 45.479 3.04822 45.5396 3.18689C45.6001 3.32556 45.6304 3.48279 45.6304 3.65857C45.6304 3.84412 45.5942 4.01013 45.522 4.15662C45.4497 4.3031 45.3452 4.42712 45.2085 4.52869C45.0718 4.63025 44.9087 4.7074 44.7192 4.76013C44.5298 4.81287 44.3179 4.83923 44.0835 4.83923C43.8726 4.83923 43.6646 4.81189 43.4595 4.7572C43.2544 4.70056 43.0679 4.6156 42.8999 4.50232C42.7339 4.38904 42.6011 4.24451 42.5015 4.06873C42.4019 3.89294 42.3521 3.68494 42.3521 3.4447H43.2339C43.2339 3.57751 43.2544 3.68982 43.2954 3.78162C43.3364 3.87341 43.394 3.94763 43.4683 4.00427C43.5444 4.06091 43.6343 4.10193 43.7378 4.12732C43.8433 4.15271 43.9585 4.16541 44.0835 4.16541C44.2358 4.16541 44.3608 4.14392 44.4585 4.10095C44.5581 4.05798 44.6313 3.99841 44.6782 3.92224C44.7271 3.84607 44.7515 3.76013 44.7515 3.66443Z" fill="#8E8F99"/>
</svg>
